<?xml version="1.0" encoding="iso-8859-1"?>
<!-- Generator: Adobe Illustrator 22.1.0, SVG Export Plug-In . SVG Version: 6.00 Build 0)  -->
<svg xmlns="http://www.w3.org/2000/svg" xmlns:xlink="http://www.w3.org/1999/xlink" version="1.1" id="Layer_1_1_" x="0px" y="0px" viewBox="0 0 64 64" style="enable-background:new 0 0 64 64;" xml:space="preserve" width="512" height="512">
<linearGradient id="SVGID_1_" gradientUnits="userSpaceOnUse" x1="32" y1="63" x2="32" y2="1">
	<stop offset="0" style="stop-color:#9F2FFF"/>
	<stop offset="1" style="stop-color:#0BB1D3"/>
</linearGradient>
<path style="fill:url(#SVGID_1_);" d="M32,23c2.243,0,4-2.636,4-6s-1.757-6-4-6s-4,2.636-4,6S29.757,23,32,23z M32,13  c0.944,0,2,1.71,2,4s-1.056,4-2,4s-2-1.71-2-4S31.056,13,32,13z M57,11h-2v10h-2v-5h-2v5h-2v-7.414l-3-3l-3,3V21h-3.005  c-0.028-6.1-1.478-12.202-4.206-17.658C35.067,1.897,33.615,1,32,1s-3.067,0.897-3.789,2.342C25.483,8.798,24.033,14.9,24.005,21H21  v-7.414l-3-3l-3,3V21h-2v-5h-2v5H9V11H7v21H5v2h6v-2H9v-4.586l13.867,4.904l1.554,15.837L10,54.341V59h18.419l-0.571,4h8.306  l-0.571-4H54v-4.659l-14.422-6.185l1.554-15.837L55,27.414V32h-2v2h6v-2h-2V11z M36.955,31.673l0.17-1.945L41,28.36v1.884  L36.955,31.673z M43,27.653l6-2.12v1.881l-6,2.122V27.653z M46,13.414l1,1V16h-2v-1.586L46,13.414z M45,18h2v3h-2V18z M30,4.236  C30.381,3.474,31.147,3,32,3s1.619,0.474,2,1.236C34.451,5.138,34.851,6.064,35.228,7h-6.456C29.149,6.064,29.549,5.138,30,4.236z   M26,21.18c0-4.132,0.704-8.263,2.03-12.18h7.939C37.296,12.917,38,17.049,38,21.18V25h2v-2h10.167l-14.922,5.271l-1.696,19.403  C33.153,47.261,32.603,47,32,47s-1.153,0.261-1.549,0.675l-1.696-19.403L13.833,23H24v2h2V21.18z M21,27.653v1.883l-6-2.122v-1.881  L21,27.653z M23,30.243V28.36l3.875,1.369l0.17,1.945L23,30.243z M18,13.414l1,1V16h-2v-1.586L18,13.414z M17,18h2v3h-2V18z   M9,23.414l4,1.413v1.88l-4-1.414V23.414z M27.236,33.863L28.909,53h-2.002l-1.958-19.946L27.236,33.863z M12,55.659l12.626-5.416  L25,54.05V57h-2v-2h-2v2h-9V55.659z M27,57v-2h1.99l-0.286,2H27z M30.153,61l1.695-11.868c0.021-0.15,0.282-0.15,0.304,0L33.847,61  H30.153z M35.01,55H37v2h-1.704L35.01,55z M52,55.659V57h-9v-2h-2v2h-2v-2.95l0.374-3.806L52,55.659z M37.093,53h-2.002  l1.673-19.137l2.287-0.809L37.093,53z M51,26.707v-1.88l4-1.413v1.879L51,26.707z"/>
</svg>
