<?xml version="1.0" encoding="iso-8859-1"?>
<!-- Generator: Adobe Illustrator 22.1.0, SVG Export Plug-In . SVG Version: 6.00 Build 0)  -->
<svg xmlns="http://www.w3.org/2000/svg" xmlns:xlink="http://www.w3.org/1999/xlink" version="1.1" id="Layer_1_1_" x="0px" y="0px" viewBox="0 0 64 64" style="enable-background:new 0 0 64 64;" xml:space="preserve" width="512" height="512">
<linearGradient id="SVGID_1_" gradientUnits="userSpaceOnUse" x1="32" y1="63" x2="32" y2="1">
	<stop offset="0" style="stop-color:#9F2FFF"/>
	<stop offset="1" style="stop-color:#0BB1D3"/>
</linearGradient>
<path style="fill:url(#SVGID_1_);" d="M16.251,57h4.891v2h-4.891c-2.403,0-4.749-0.987-6.434-2.709l1.429-1.398  C12.577,56.251,14.354,57,16.251,57z M9.48,51.781l-1.934,0.51c0.204,0.773,0.51,1.517,0.909,2.209l1.732-1  C9.877,52.962,9.639,52.384,9.48,51.781z M59,41h4l-0.033,2.255l-2.646,10.054C58.819,59.015,53.65,63,47.75,63H16.25  c-5.9,0-11.07-3.985-12.572-9.691L1,43v-2h7.307l2.27-6.054C11.014,33.782,12.143,33,13.386,33H16v-2c0-1.103,0.897-2,2-2h10  c1.103,0,2,0.897,2,2v2h2.614c1.243,0,2.372,0.782,2.809,1.946L37.693,41h1.613l2.27-6.054C42.014,33.782,43.143,33,44.386,33H48v-3  h-6v-6h6v-2h-2v-6h2v-3c0-1.654,1.346-3,3-3s3,1.346,3,3v3h2v6h-2v2h6v6h-6v3h5V41z M50,16h2v-3c0-0.551-0.449-1-1-1s-1,0.449-1,1  V16z M48,20h6v-2h-6V20z M50,24h2v-2h-2V24z M44,28h14v-2H44V28z M50,33h2v-3h-2V33z M41.443,41H57v-6H44.386  c-0.415,0-0.791,0.261-0.937,0.649L41.443,41z M18,33h10v-2H18V33z M10.443,41h25.113l-2.006-5.351  C33.405,35.261,33.028,35,32.614,35H13.386c-0.415,0-0.791,0.261-0.937,0.649L10.443,41z M60.966,43H3.034l1.053,4H53v2H4.613  l1,3.799C6.884,57.628,11.258,61,16.25,61H47.75c4.993,0,9.367-3.372,10.637-8.201l1-3.799H55v-2h4.913L60.966,43z M22,39h2v-2h-2  V39z M28,39h2v-2h-2V39z M16,39h2v-2h-2V39z M6.445,22.832l-0.893-0.595C6.232,23.581,7.483,24.59,9,24.899V15H5v-2h4v-2.101  C6.721,10.434,5,8.414,5,6c0-2.757,2.243-5,5-5s5,2.243,5,5c0,2.414-1.721,4.434-4,4.899V13h4v2h-4v9.899  c1.517-0.309,2.768-1.318,3.447-2.662l-0.893,0.595l-1.109-1.664l3.832-2.555l2.555,3.832l-1.664,1.109l-0.661-0.991  C15.481,25.158,12.954,27,10,27s-5.481-1.842-6.507-4.436l-0.661,0.991l-1.664-1.109l2.555-3.832l3.832,2.555L6.445,22.832z   M9,8.816V7h2v1.816C12.161,8.402,13,7.302,13,6c0-1.654-1.346-3-3-3S7,4.346,7,6C7,7.302,7.839,8.402,9,8.816z M45,39h2v-2h-2V39z   M49,39h2v-2h-2V39z M53,37v2h2v-2H53z"/>
</svg>
