<?xml version="1.0" encoding="iso-8859-1"?>
<!-- Generator: Adobe Illustrator 22.1.0, SVG Export Plug-In . SVG Version: 6.00 Build 0)  -->
<svg xmlns="http://www.w3.org/2000/svg" xmlns:xlink="http://www.w3.org/1999/xlink" version="1.1" id="Layer_1_1_" x="0px" y="0px" viewBox="0 0 64 64" style="enable-background:new 0 0 64 64;" xml:space="preserve" width="512" height="512">
<linearGradient id="SVGID_1_" gradientUnits="userSpaceOnUse" x1="32" y1="63" x2="32" y2="1">
	<stop offset="0" style="stop-color:#9F2FFF"/>
	<stop offset="1" style="stop-color:#0BB1D3"/>
</linearGradient>
<path style="fill:url(#SVGID_1_);" d="M51.008,1H12.992C9.688,1,7,3.688,7,6.992v31.872c0,1.629,0.676,3.209,1.854,4.334  l19.008,18.144C28.981,62.411,30.45,63,32,63s3.019-0.589,4.137-1.657l19.009-18.145C56.324,42.073,57,40.493,57,38.864V6.992  C57,3.688,54.312,1,51.008,1z M55,38.864c0,1.085-0.45,2.138-1.235,2.887l-19.01,18.146c-1.488,1.424-4.021,1.425-5.511-0.001  L10.235,41.751C9.45,41.002,9,39.949,9,38.864V6.992C9,4.791,10.791,3,12.992,3h38.016C53.209,3,55,4.791,55,6.992V38.864z   M32,37.622L13.398,20H11v19.43l18.587,17.608C30.241,57.658,31.098,58,32,58s1.759-0.342,2.413-0.962L53,39.43V20h-2.398L32,37.622  z M51,29.571l-19,18.05l-10.312-9.796l-1.377,1.449L32,50.379l19-18.05v6.242L33.038,55.587c-0.562,0.533-1.514,0.533-2.076,0  L13,38.57v-6.242l5.68,5.396l1.377-1.449L13,29.571v-7.193l19,18l19-18V29.571z M25.29,26.618L32,23.575l6.71,3.043l-0.678-7.636  l4.773-5.708l-7.06-1.669L32,4.965l-3.746,6.641l-7.06,1.669l4.773,5.708L25.29,26.618z M24.806,14.476l4.761-1.126L32,9.035  l2.434,4.314l4.761,1.126l-3.227,3.858l0.447,5.048L32,21.38l-4.415,2.002l0.447-5.048L24.806,14.476z"/>
</svg>
