<?xml version="1.0" encoding="iso-8859-1"?>
<!-- Generator: Adobe Illustrator 22.1.0, SVG Export Plug-In . SVG Version: 6.00 Build 0)  -->
<svg xmlns="http://www.w3.org/2000/svg" xmlns:xlink="http://www.w3.org/1999/xlink" version="1.1" id="Layer_1_1_" x="0px" y="0px" viewBox="0 0 64 64" style="enable-background:new 0 0 64 64;" xml:space="preserve" width="512" height="512">
<linearGradient id="SVGID_1_" gradientUnits="userSpaceOnUse" x1="32" y1="63" x2="32" y2="1">
	<stop offset="0" style="stop-color:#9F2FFF"/>
	<stop offset="1" style="stop-color:#0BB1D3"/>
</linearGradient>
<path style="fill:url(#SVGID_1_);" d="M17,23c-0.552,0-1-0.448-1-1c0-0.552,0.448-1,1-1s1,0.448,1,1C18,22.552,17.552,23,17,23z   M27,23c0.552,0,1-0.448,1-1c0-0.552-0.448-1-1-1s-1,0.448-1,1C26,22.552,26.448,23,27,23z M43,63H1V44.526  c0-3.109,2.088-5.876,5.077-6.73L15,35.246v-2.116c-1.414-1.388-2.417-3.191-2.811-5.211C9.819,27.527,8,25.479,8,23  c0-2.414,1.721-4.434,4-4.899V16H9.281C7.472,16,6,14.528,6,12.719c0-0.676,0.205-1.327,0.593-1.881C10.905,4.678,17.968,1,25.487,1  h2.441C32.379,1,36,4.621,36,9.071c0,2.156-0.84,4.183-2.364,5.707L32,16.414v1.687c2.279,0.465,4,2.484,4,4.899  c0,2.479-1.819,4.527-4.189,4.918c-0.394,2.02-1.397,3.823-2.811,5.211v2.116l8.923,2.55C40.912,38.649,43,41.417,43,44.526V63z   M16.166,37.44l0.646,5.816l3.519-2.346L16.166,37.44z M19,44.202V61h6V44.202l-3-2L19,44.202z M27.188,43.256l0.646-5.816  l-4.165,3.471L27.188,43.256z M32,20.184v5.631c1.161-0.414,2-1.514,2-2.816S33.161,20.598,32,20.184z M12,14h4h15.586l0.636-0.636  C33.369,12.217,34,10.693,34,9.071C34,5.724,31.276,3,27.929,3h-2.441C18.62,3,12.169,6.359,8.231,11.984  C8.08,12.201,8,12.455,8,12.719C8,13.425,8.575,14,9.281,14H12z M14,16v2h16v-2H16H14z M12,25.816v-5.631  c-1.161,0.414-2,1.514-2,2.816S10.839,25.402,12,25.816z M22,34c4.411,0,8-3.589,8-8v-6H14v6C14,30.411,17.589,34,22,34z M17,34.647  v0.885l5,4.167l5-4.167v-0.885C25.527,35.502,23.822,36,22,36S18.473,35.502,17,34.647z M3,61h14V45.535l-1.812,1.208l-1.02-9.18  l-7.541,2.155C4.491,40.328,3,42.305,3,44.526V51h4v4H5v-2H3V61z M41,61v-8h-2v3h-6v-2h4v-3h4v-6.474  c0-2.221-1.491-4.198-3.626-4.808l-7.541-2.155l-1.02,9.18L27,45.535V61H41z M23,45h-2v2h2V45z M23,51h-2v2h2V51z M23,59v-2h-2v2H23  z M22,31c2.206,0,4-1.794,4-4h-2c0,1.103-0.897,2-2,2s-2-0.897-2-2h-2C18,29.206,19.794,31,22,31z M29,59h2v-2h-2V59z M35,41h-2v2h2  V41z M5,59h2v-2H5V59z M11,41H9v2h2V41z M13,47H7v2h6V47z M37,47h-6v2h6V47z M11,57H9v2h4v-4h2v-2h-4V57z M23,6h-2v2h2V6z M21,8h-2  v2h2V8z M21,12h2v-2h-2V12z M25,10V8h-2v2H25z M49,18h-6v-3.677l5-2V8h8v6h-1v12h2v3.382l2.211-1.106  C59.573,28.096,59.978,28,60.382,28C61.826,28,63,29.174,63,30.618v3l-6,3V40h6v6h-6v0.838l3.816,11.448  C60.938,58.654,61,59.034,61,59.419C61,61.394,59.394,63,57.419,63h-4.838C50.606,63,49,61.394,49,59.419v-6.005l-4-4V36.382l2-1V26  h2V18z M49,28v2h6v-2H49z M55,32h-6v3.171c1.164,0.413,2,1.525,2,2.829v8h4v-2h-2v-2h2v-2h-2v-2h2v-2h-2v-2h2V32z M49,50.586V38  c0-0.492-0.364-0.883-0.832-0.966L47,37.618v10.968L49,50.586z M55.279,48H51v11.419C51,60.291,51.709,61,52.581,61h4.838  C58.291,61,59,60.291,59,59.419c0-0.17-0.027-0.339-0.082-0.501L55.279,48z M57,42v2h4v-2H57z M57,31.618v2.764l4-2v-1.764  c0-0.436-0.503-0.75-0.895-0.553L57,31.618z M53,14h-2v12h2V14z M50,12h4v-2h-4V12z M49,16v-1.923l-4,1.6V16H49z"/>
</svg>
