<?xml version="1.0" encoding="iso-8859-1"?>
<!-- Generator: Adobe Illustrator 22.1.0, SVG Export Plug-In . SVG Version: 6.00 Build 0)  -->
<svg xmlns="http://www.w3.org/2000/svg" xmlns:xlink="http://www.w3.org/1999/xlink" version="1.1" id="Layer_1_1_" x="0px" y="0px" viewBox="0 0 64 64" style="enable-background:new 0 0 64 64;" xml:space="preserve" width="512" height="512">
<linearGradient id="SVGID_1_" gradientUnits="userSpaceOnUse" x1="32" y1="55" x2="32" y2="9">
	<stop offset="0" style="stop-color:#9F2FFF"/>
	<stop offset="1" style="stop-color:#0BB1D3"/>
</linearGradient>
<path style="fill:url(#SVGID_1_);" d="M61,9h-5.677l-5.249,13.121C49.168,20.842,47.683,20,46,20v-6h-3v-4h-2v4h-2v-2h-2v2h-2v-4h-2  v4h-3v6c-2.414,0-4.434,1.721-4.899,4H11C5.486,24,1,28.486,1,34s4.486,10,10,10h38.406l6,11H61V36.868l2-1.333v-3.07l-2-1.333V9z   M51.23,24.618L52.277,22H59v7.798L51.23,24.618z M59,20h-5.923l0.8-2H59V20z M56.677,11H59v5h-4.323L56.677,11z M32,16h12v4H32V16z   M30,22h16c1.302,0,2.402,0.839,2.816,2H27.184C27.598,22.839,28.698,22,30,22z M11,26h38.697l3.533,2.355L48.586,33H47v-4H17v4  H3.069C3.564,29.06,6.928,26,11,26z M19,33v-2h2v2H19z M23,31h2v2h-2V31z M27,31h2v2h-2V31z M31,31h2v2h-2V31z M35,31h2v2h-2V31z   M39,31h2v2h-2V31z M43,31h2v2h-2V31z M3.069,35h45.516l4.645,4.645L49.697,42H11C6.928,42,3.564,38.94,3.069,35z M53.321,47H59v2  h-4.588L53.321,47z M56.594,53l-1.091-2H59v2H56.594z M59,45h-6.77l-0.914-1.675L59,38.202V45z M61,34.465l-6.073,4.048L50.414,34  l4.513-4.513L61,33.535V34.465z M35,37h2v2h-2V37z M39,37h2v2h-2V37z M43,37h2v2h-2V37z M34,17h2v2h-2V17z M40,17v2h-2v-2H40z"/>
</svg>
