<?xml version="1.0" encoding="iso-8859-1"?>
<!-- Generator: Adobe Illustrator 22.1.0, SVG Export Plug-In . SVG Version: 6.00 Build 0)  -->
<svg xmlns="http://www.w3.org/2000/svg" xmlns:xlink="http://www.w3.org/1999/xlink" version="1.1" id="Layer_1_1_" x="0px" y="0px" viewBox="0 0 64 64" style="enable-background:new 0 0 64 64;" xml:space="preserve" width="512" height="512">
<linearGradient id="SVGID_1_" gradientUnits="userSpaceOnUse" x1="32" y1="50" x2="32" y2="14">
	<stop offset="0" style="stop-color:#9F2FFF"/>
	<stop offset="1" style="stop-color:#0BB1D3"/>
</linearGradient>
<path style="fill:url(#SVGID_1_);" d="M20,44h2v2h-2V44z M31,46h2v-2h-2V46z M42,46h2v-2h-2V46z M55,44h-2v2h2V44z M63,34.32  l-4.121,5.769C61.217,40.507,63,42.544,63,45c0,2.757-2.243,5-5,5H17c-2.757,0-5-2.243-5-5c0-1.13,0.391-2.162,1.026-3H11v-6h8.8  l1.81-5.882C22,28.851,23.152,28,24.478,28h1.703l0.4-2H8.722C8.375,26.595,7.737,27,7,27H3c-1.103,0-2-0.897-2-2v-4  c0-1.103,0.897-2,2-2h4c0.737,0,1.375,0.405,1.722,1h19.097c0.418-1.179,1.54-2,2.821-2H31v-2c0-1.103,0.897-2,2-2h14  c1.103,0,2,0.897,2,2v2h0.36c1.426,0,2.663,1.015,2.941,2.412L53.82,28h2.483L63,32.465V34.32z M49.36,20H41v8h10.78l-1.439-7.196  C50.248,20.338,49.836,20,49.36,20z M54,42c-1.654,0-3,1.346-3,3s1.346,3,3,3s3-1.346,3-3S55.654,42,54,42z M21,48  c1.654,0,3-1.346,3-3s-1.346-3-3-3s-3,1.346-3,3S19.346,48,21,48z M26,45c0,1.13-0.391,2.162-1.026,3h3.051  C27.391,47.162,27,46.13,27,45s0.391-2.162,1.026-3h-3.051C25.609,42.838,26,43.87,26,45z M32,48c1.654,0,3-1.346,3-3s-1.346-3-3-3  s-3,1.346-3,3S30.346,48,32,48z M37,45c0,1.13-0.391,2.162-1.026,3h3.051C38.391,47.162,38,46.13,38,45s0.391-2.162,1.026-3h-3.051  C36.609,42.838,37,43.87,37,45z M43,48c1.654,0,3-1.346,3-3s-1.346-3-3-3s-3,1.346-3,3S41.346,48,43,48z M48,45  c0,1.13-0.391,2.162-1.026,3h3.051C49.391,47.162,49,46.13,49,45s0.391-2.162,1.026-3h-3.051C47.609,42.838,48,43.87,48,45z M33,18  h14v-2H33V18z M9,22v2h8v-2H9z M7.002,25L7,21H3v4H7.002z M26.98,24l0.4-2H19v2H26.98z M28.22,28H39v-8h-8.36  c-0.476,0-0.888,0.338-0.98,0.803L28.22,28z M20.662,40H49v-4h-3.142c-0.447,1.721-1.999,3-3.858,3c-2.206,0-4-1.794-4-4  s1.794-4,4-4c1.859,0,3.411,1.279,3.858,3H49v-4H24.478c-0.441,0-0.826,0.284-0.956,0.707L20.662,40z M42,36v-2h1.722  c-0.347-0.595-0.985-1-1.722-1c-1.103,0-2,0.897-2,2s0.897,2,2,2c0.737,0,1.375-0.405,1.722-1H42z M13,40h4h1.569l0.615-2H13V40z   M17,48h0.026C16.391,47.162,16,46.13,16,45s0.391-2.162,1.026-3H17c-1.654,0-3,1.346-3,3S15.346,48,17,48z M58,42h-0.026  C58.609,42.838,59,43.87,59,45s-0.391,2.162-1.026,3H58c1.654,0,3-1.346,3-3S59.654,42,58,42z M61,33.535L55.697,30H51v10h5.486  L61,33.68V33.535z M53,34h3v-2h-3V34z M53,38h3v-2h-3V38z M26.586,38l-3-3l3-3H32v6H26.586z M26.414,35l1,1H30v-2h-2.586L26.414,35z   M47,25v-2h-2v2H47z"/>
</svg>
