<?xml version="1.0" encoding="iso-8859-1"?>
<!-- Generator: Adobe Illustrator 19.0.0, SVG Export Plug-In . SVG Version: 6.00 Build 0)  -->
<svg version="1.1" id="Layer_1" xmlns="http://www.w3.org/2000/svg" xmlns:xlink="http://www.w3.org/1999/xlink" x="0px" y="0px"
	 viewBox="0 0 512 512" style="enable-background:new 0 0 512 512;" xml:space="preserve">
<g>
	<path style="fill:#F8D832;" d="M512,317.793L256,88.276L0,317.793v-88.276L256,0l256,229.517V317.793z"/>
	<path style="fill:#C4A316;" d="M512,406.069L256,176.552L0,406.069v-88.276L256,88.276l256,229.517V406.069z"/>
	<g>
		<path style="fill:#F8D832;" d="M512,494.345L256,264.828L0,494.345v-88.276l256-229.517l256,229.517V494.345z"/>
		<path style="fill:#F8D832;" d="M256,317.793l31.417,63.665l65.686,6.956l-46.265,52.807L317.793,512L256,476.69L194.207,512
			l10.955-70.78l-46.265-52.807l65.686-6.956L256,317.793z"/>
	</g>
</g>
<g>
</g>
<g>
</g>
<g>
</g>
<g>
</g>
<g>
</g>
<g>
</g>
<g>
</g>
<g>
</g>
<g>
</g>
<g>
</g>
<g>
</g>
<g>
</g>
<g>
</g>
<g>
</g>
<g>
</g>
</svg>
